<?xml version="1.0" encoding="UTF-8"?>
<svg id="_레이어_1" data-name="레이어 1" xmlns="http://www.w3.org/2000/svg" viewBox="0 0 2048 2048">
  <defs>
    <style>
      .cls-1 {
        fill: #fff;
      }

      .cls-2 {
        fill: #ff00bd;
      }

      .cls-3 {
        fill: #afffa4;
      }
    </style>
  </defs>
  <circle class="cls-3" cx="1024" cy="1024" r="621.96"/>
  <circle class="cls-1" cx="1023.98" cy="1024" r="137.6"/>
  <path class="cls-1" d="m1028.98,1244.03l190.53,282.68c140.4-54.79,252.39-166.79,307.19-307.16l-282.66-190.57c-2.63,117.45-97.63,212.42-215.05,215.05Z"/>
  <path class="cls-1" d="m1019.02,803.97l-190.57-282.68c-140.38,54.82-252.39,166.79-307.16,307.21l282.68,190.51c2.61-117.41,97.61-212.4,215.05-215.03Z"/>
  <path class="cls-2" d="m1024,810.36c-117.82,0-213.64,95.84-213.64,213.64s95.82,213.64,213.64,213.64,213.64-95.84,213.64-213.64-95.84-213.64-213.64-213.64Zm0,482.33c-148.15,0-268.69-120.52-268.69-268.69s120.52-268.67,268.69-268.67,268.67,120.54,268.67,268.67-120.54,268.69-268.67,268.69Z"/>
</svg>